<svg xmlns="http://www.w3.org/2000/svg" xmlns:xlink="http://www.w3.org/1999/xlink" version="1.1" width="497.151" height="497.151" style="" xml:space="preserve"><rect id="backgroundrect" width="100%" height="100%" x="0" y="0" fill="none" stroke="none"/>
















<g class="currentLayer" style=""><title>Layer 1</title><g id="svg_1" class="" fill="#ffffff" fill-opacity="1">
	<g id="svg_2" fill="#ffffff" fill-opacity="1">
		<path d="M495.504,253.042c-0.983-5.004-4.38-17.862-15.495-36.921c-28.836-49.438-88.827-135.585-125.162-151.495    c-48.154-21.089-108.045,35.565-89.513,63.729c18.533,28.164,45.165-13.977,75.612,8.529    c18.762,13.867,37.497,55.633,49.116,85.656H107.764c11.619-30.023,30.354-71.789,49.116-85.656    c30.448-22.506,57.079,19.635,75.612-8.529c18.534-28.164-41.357-84.818-89.511-63.729    C106.646,80.536,46.655,166.683,17.82,216.121c-8.136,13.951-12.138,24.581-14.085,31.241C1.345,252.648,0,258.506,0,264.676    v130.286c0,23.235,18.905,42.141,42.141,42.141l120.619-0.021c5.085,0,9.952-1.575,14.077-4.554l73.242-52.921l69.834,52.665    c4.144,3.125,9.286,4.849,14.479,4.849l120.624,0.007c23.232,0,42.136-18.915,42.136-42.165V264.676    C497.15,260.64,496.569,256.74,495.504,253.042z M449.066,389.043l-106.624-0.009l-77.584-58.508    c-4.144-3.124-9.283-4.844-14.474-4.844c-5.087,0-9.955,1.574-14.08,4.554l-81.328,58.763l-106.894,0.016V270.624h400.982    L449.066,389.043L449.066,389.043z" id="svg_3" fill="#ffffff" fill-opacity="1"/>
		<path d="M190.563,290.09c-0.065,0-0.123,0.002-0.177,0.003l-129.11,0.062v84.027l84.155-0.013l69.39-50.138    C212.454,293.595,197.361,290.09,190.563,290.09z" id="svg_4" fill="#ffffff" fill-opacity="1"/>
		<path d="M306.585,290.472c-6.798,0-21.889,3.505-24.258,33.941l69.392,50.138l84.153,0.013v-84.028    C435.872,290.535,306.649,290.472,306.585,290.472z M424.419,363.108l-68.996-0.01l-60.907-44.011    c1.283-7.452,4.326-16.705,11.53-17.146l118.373,0.046V363.108z" id="svg_5" fill="#ffffff" fill-opacity="1"/>
	</g>
</g><g id="svg_6">
</g><g id="svg_7">
</g><g id="svg_8">
</g><g id="svg_9">
</g><g id="svg_10">
</g><g id="svg_11">
</g><g id="svg_12">
</g><g id="svg_13">
</g><g id="svg_14">
</g><g id="svg_15">
</g><g id="svg_16">
</g><g id="svg_17">
</g><g id="svg_18">
</g><g id="svg_19">
</g><g id="svg_20">
</g></g></svg>